<svg width="16" height="16" viewBox="0 0 16 16" fill="none" xmlns="http://www.w3.org/2000/svg">
<path fill-rule="evenodd" clip-rule="evenodd" d="M7.99956 13.2719C4.93352 11.5256 3.22348 9.78992 2.39657 8.28398C1.55023 6.74265 1.62407 5.44446 2.09371 4.5231C3.05902 2.62928 5.80409 2.02369 7.4766 4.13902L7.99952 4.80038L8.52248 4.13905C10.1953 2.02364 12.9405 2.62932 13.9058 4.5231C14.3754 5.44445 14.4492 6.74263 13.6028 8.28396C12.7759 9.78991 11.0657 11.5256 7.99956 13.2719ZM7.99958 2.73763C5.64678 0.501885 2.17585 1.42591 0.905793 3.9176C0.208765 5.28507 0.199244 7.05249 1.22784 8.92572C2.2473 10.7823 4.27991 12.7421 7.67706 14.6197L7.99955 14.798L8.32204 14.6197C11.7193 12.7421 13.752 10.7824 14.7716 8.92574C15.8002 7.05251 15.7907 5.28508 15.0937 3.9176C13.8236 1.42586 10.3526 0.501918 7.99958 2.73763Z" fill="#FF3F3A"/>
</svg>
