<svg width="16" height="16" viewBox="0 0 16 16" fill="none" xmlns="http://www.w3.org/2000/svg">
<path fill-rule="evenodd" clip-rule="evenodd" d="M5.66667 1.94796C5.11438 1.94796 4.66667 2.39567 4.66667 2.94796V13.0521C4.66667 13.6044 5.11438 14.0521 5.66667 14.0521H10.3333C10.8856 14.0521 11.3333 13.6044 11.3333 13.0521V2.94796C11.3333 2.39567 10.8856 1.94796 10.3333 1.94796H10.2777L10.1154 2.33759C10.0118 2.586 9.76912 2.74781 9.5 2.74781H6.5C6.23088 2.74781 5.98816 2.586 5.88463 2.33759L5.72226 1.94796H5.66667ZM3.33334 2.94796C3.33334 1.65929 4.378 0.614624 5.66667 0.614624H10.3333C11.622 0.614624 12.6667 1.65929 12.6667 2.94796V13.0521C12.6667 14.3408 11.622 15.3855 10.3333 15.3855H5.66667C4.378 15.3855 3.33334 14.3408 3.33334 13.0521V2.94796Z" fill="white"/>
</svg>
