<svg width="16" height="16" viewBox="0 0 16 16" fill="none" xmlns="http://www.w3.org/2000/svg">
<path fill-rule="evenodd" clip-rule="evenodd" d="M15.1667 12V4.66663C15.1667 3.56206 14.2712 2.66663 13.1667 2.66663L2.83333 2.66664C1.72876 2.66664 0.833328 3.56207 0.833328 4.66664V12C0.833328 13.1045 1.72876 14 2.83333 14L13.1667 14C14.2712 14 15.1667 13.1045 15.1667 12ZM13.8333 6.17293V12C13.8333 12.3681 13.5349 12.6666 13.1667 12.6666L2.83333 12.6666C2.46514 12.6666 2.16666 12.3681 2.16666 12L2.16666 6.17285L6.87544 9.37481C7.55416 9.83634 8.44596 9.83634 9.12468 9.37481L13.8333 6.17293ZM13.8257 4.5657C13.7771 4.2454 13.5005 3.99996 13.1667 3.99996L2.83333 3.99997C2.49948 3.99997 2.22294 4.24537 2.17427 4.56562L7.62519 8.27225C7.85143 8.42609 8.14869 8.42609 8.37493 8.27225L13.8257 4.5657Z" fill="white"/>
</svg>
