<svg width="20" height="20" viewBox="0 0 20 20" fill="none" xmlns="http://www.w3.org/2000/svg">
<path fill-rule="evenodd" clip-rule="evenodd" d="M10.0001 2.70829C8.3893 2.70829 7.08347 4.01413 7.08347 5.62496C7.08347 7.23579 8.3893 8.54163 10.0001 8.54163C11.611 8.54163 12.9168 7.23579 12.9168 5.62496C12.9168 4.01413 11.611 2.70829 10.0001 2.70829ZM5.4168 5.62496C5.4168 3.09365 7.46883 1.04163 10.0001 1.04163C12.5314 1.04163 14.5835 3.09365 14.5835 5.62496C14.5835 8.15626 12.5314 10.2083 10.0001 10.2083C7.46883 10.2083 5.4168 8.15626 5.4168 5.62496Z" fill="#424551"/>
<path fill-rule="evenodd" clip-rule="evenodd" d="M5.08685 12.7083C4.50908 12.7083 4.05749 12.9896 3.87418 13.3938C3.62047 13.9532 3.39072 14.6193 3.3365 15.2509C3.31226 15.5333 3.43 15.7414 3.59224 15.8422C4.44987 16.375 6.43713 17.2916 10.0001 17.2916C13.5631 17.2916 15.5504 16.375 16.408 15.8422C16.5703 15.7414 16.688 15.5333 16.6638 15.2509C16.6096 14.6193 16.3798 13.9532 16.1261 13.3938C15.9428 12.9896 15.4912 12.7083 14.9134 12.7083H5.08685ZM2.35632 12.7054C2.86294 11.5884 3.99422 11.0416 5.08685 11.0416H14.9134C16.006 11.0416 17.1373 11.5884 17.6439 12.7054C17.9349 13.347 18.2472 14.2096 18.3243 15.1084C18.3946 15.9269 18.0544 16.7815 17.2875 17.2579C16.1596 17.9586 13.8665 18.9583 10.0001 18.9583C6.1338 18.9583 3.84072 17.9586 2.71277 17.2579C1.94589 16.7815 1.60569 15.9269 1.67594 15.1084C1.75309 14.2096 2.06534 13.347 2.35632 12.7054Z" fill="#424551"/>
</svg>
